<svg xmlns="http://www.w3.org/2000/svg" xmlns:xlink="http://www.w3.org/1999/xlink">
<symbol id="PasswordIcon"  viewBox="0 0 21 20" fill="none" xmlns="http://www.w3.org/2000/svg">
<path d="M15.181 14.673C13.7782 15.5507 12.1547 16.0109 10.5 16C6.9 16 3.9 14 1.5 10C2.772 7.88 4.212 6.322 5.82 5.326M8.68 4.18C9.27904 4.05873 9.88881 3.99842 10.5 4C14.1 4 17.1 6 19.5 10C18.834 11.11 18.121 12.067 17.362 12.87M1.5 1L19.5 19" stroke="#A6A6A6" stroke-width="2" stroke-linecap="round" stroke-linejoin="round"/>
</symbol>

<!-- <symbol id="PasswordIconOpen"  aria-hidden="true" xmlns="http://www.w3.org/2000/svg"  viewBox="0 0 24 24">
  <path stroke="currentColor" stroke-width="2" d="M21 12c0 1.2-4.03 6-9 6s-9-4.8-9-6c0-1.2 4.03-6 9-6s9 4.8 9 6Z"/>
  <path stroke="currentColor" stroke-width="2" d="M15 12a3 3 0 1 1-6 0 3 3 0 0 1 6 0Z"/>
</symbol> -->

<symbol id="PasswordIconOpen" xmlns="http://www.w3.org/2000/svg" xmlns:xlink="http://www.w3.org/1999/xlink" version="1.1"  viewBox="0 0 256 256" xml:space="preserve">

<defs>
</defs>
<g style="stroke: none; stroke-width: 0; stroke-dasharray: none; stroke-linecap: butt; stroke-linejoin: miter; stroke-miterlimit: 10; fill: none; fill-rule: nonzero; opacity: 1;" transform="translate(1.4065934065934016 1.4065934065934016) scale(2.81 2.81)" >
	<path d="M 45 73.264 c -14.869 0 -29.775 -8.864 -44.307 -26.346 c -0.924 -1.112 -0.924 -2.724 0 -3.836 C 15.225 25.601 30.131 16.737 45 16.737 c 14.868 0 29.775 8.864 44.307 26.345 c 0.925 1.112 0.925 2.724 0 3.836 C 74.775 64.399 59.868 73.264 45 73.264 z M 6.934 45 C 19.73 59.776 32.528 67.264 45 67.264 c 12.473 0 25.27 -7.487 38.066 -22.264 C 70.27 30.224 57.473 22.737 45 22.737 C 32.528 22.737 19.73 30.224 6.934 45 z" style="stroke: none; stroke-width: 1; stroke-dasharray: none; stroke-linecap: butt; stroke-linejoin: miter; stroke-miterlimit: 10; fill: rgb(0,0,0); fill-rule: nonzero; opacity: 1;" transform=" matrix(1 0 0 1 0 0) " stroke-linecap="round" />
	<path d="M 45 62 c -9.374 0 -17 -7.626 -17 -17 s 7.626 -17 17 -17 s 17 7.626 17 17 S 54.374 62 45 62 z M 45 34 c -6.065 0 -11 4.935 -11 11 s 4.935 11 11 11 s 11 -4.935 11 -11 S 51.065 34 45 34 z" style="stroke: none; stroke-width: 1; stroke-dasharray: none; stroke-linecap: butt; stroke-linejoin: miter; stroke-miterlimit: 10; fill: rgb(0,0,0); fill-rule: nonzero; opacity: 1;" transform=" matrix(1 0 0 1 0 0) " stroke-linecap="round" />
</g>
</symbol>
<symbol id="PasswordUnHide"  style="fill-rule:evenodd;clip-rule:evenodd;stroke-linejoin:round;stroke-miterlimit:1.41421;" version="1.1" viewBox="0 0 128 128" width="100%" xml:space="preserve" xmlns="http://www.w3.org/2000/svg" xmlns:serif="http://www.serif.com/" xmlns:xlink="http://www.w3.org/1999/xlink"><rect height="128" id="Eye" style="fill:none;" width="128" x="0.151" y="0"/><clipPath id="_clip1"><rect height="128" width="128" x="0.151" y="0"/></clipPath><g clip-path="url(#_clip1)"><path d="M64.444,30.001c24.374,0.19 49.922,9.735 62.228,30.594c0.585,0.992 1.323,2.479 1.323,2.479c0.739,1.976 -1.234,4.17 -2.723,6.404c-12.935,19.399 -37.627,28.522 -61.507,28.522c-24.269,0 -50.062,-9.445 -62.05,-30.589c-0.615,-1.085 -1.379,-2.721 -1.379,-2.721c-0.52,-1.494 0.721,-3.14 1.684,-4.753c11.808,-19.784 36.516,-29.743 61.276,-29.936c0.383,-0.001 0.765,-0.001 1.148,0Zm-1.127,4c-21.626,0.169 -43.742,7.796 -56.05,25.208c-1.057,1.495 -2.034,3.052 -2.869,4.682c0,0 3.081,5.632 6.767,9.721c13.377,14.834 34.636,20.785 54.803,20.365c22.83,-0.475 46.856,-9.45 57.836,-29.797c0,0 0.045,-0.454 -0.168,-0.839c-10.846,-19.342 -35.36,-29.154 -59.213,-29.34c-0.369,-0.001 -0.737,-0.001 -1.106,0Zm1.028,15c9.905,0.188 17.976,11.856 13.325,21.502c-4.061,8.424 -16.853,11.041 -23.866,4.353c-8.237,-7.855 -3.561,-25.595 10.154,-25.855c0.193,-0.001 0.193,-0.001 0.387,0Zm-0.336,4c-7.254,0.137 -13.177,8.704 -9.773,15.764c2.981,6.185 12.358,8.102 17.502,3.196c3.46,-3.298 4.392,-8.958 2.086,-13.2c-1.921,-3.536 -5.498,-5.788 -9.815,-5.76Z" style="fill-rule:nonzero;"/></g></symbol>
<!-- <symbol  viewBox="0 0 16 10" fill="none" xmlns="http://www.w3.org/2000/svg">
<path d="M15.7082 0.792166C15.6153 0.699039 15.5049 0.625153 15.3834 0.574739C15.2619 0.524326 15.1317 0.498379 15.0002 0.498379C14.8686 0.498379 14.7384 0.524326 14.6169 0.574739C14.4954 0.625152 14.3851 0.699039 14.2922 0.792166L8.00017 7.08617L1.70817 0.792165C1.61519 0.699189 1.50481 0.625436 1.38333 0.575118C1.26185 0.5248 1.13165 0.4989 1.00017 0.4989C0.868679 0.4989 0.738478 0.5248 0.616999 0.575118C0.49552 0.625435 0.385142 0.699189 0.292167 0.792164C0.199191 0.88514 0.125438 0.995518 0.0751198 1.117C0.024802 1.23848 -0.00109601 1.36868 -0.00109603 1.50016C-0.00109604 1.63165 0.0248019 1.76185 0.0751197 1.88333C0.125437 2.00481 0.199191 2.11519 0.292166 2.20816L7.29217 9.20816C7.38506 9.30129 7.49541 9.37518 7.6169 9.42559C7.73839 9.476 7.86863 9.50195 8.00017 9.50195C8.1317 9.50195 8.26194 9.476 8.38343 9.42559C8.50492 9.37518 8.61527 9.30129 8.70817 9.20817L15.7082 2.20817C15.8013 2.11527 15.8752 2.00492 15.9256 1.88343C15.976 1.76194 16.002 1.6317 16.002 1.50017C16.002 1.36863 15.976 1.23839 15.9256 1.1169C15.8752 0.995407 15.8013 0.885057 15.7082 0.792166Z" fill="#757575"/>
</symbol> -->
<symbol id="Downarrow"  viewBox="0 0 17 10" fill="none" xmlns="http://www.w3.org/2000/svg">
<path d="M16.2082 0.792166C16.1153 0.699039 16.0049 0.625153 15.8834 0.574739C15.7619 0.524326 15.6317 0.498379 15.5002 0.498379C15.3686 0.498379 15.2384 0.524326 15.1169 0.574739C14.9954 0.625152 14.8851 0.699039 14.7922 0.792166L8.50017 7.08617L2.20817 0.792165C2.11519 0.699189 2.00481 0.625436 1.88333 0.575118C1.76185 0.5248 1.63165 0.4989 1.50017 0.4989C1.36868 0.4989 1.23848 0.5248 1.117 0.575118C0.99552 0.625435 0.885142 0.699189 0.792167 0.792164C0.699191 0.88514 0.625438 0.995518 0.57512 1.117C0.524802 1.23848 0.498904 1.36868 0.498904 1.50016C0.498904 1.63165 0.524802 1.76185 0.57512 1.88333C0.625437 2.00481 0.699191 2.11519 0.792166 2.20816L7.79217 9.20816C7.88506 9.30129 7.99541 9.37518 8.1169 9.42559C8.23839 9.476 8.36863 9.50195 8.50017 9.50195C8.6317 9.50195 8.76194 9.476 8.88343 9.42559C9.00492 9.37518 9.11527 9.30129 9.20817 9.20817L16.2082 2.20817C16.3013 2.11527 16.3752 2.00492 16.4256 1.88343C16.476 1.76194 16.502 1.6317 16.502 1.50017C16.502 1.36863 16.476 1.23839 16.4256 1.1169C16.3752 0.995407 16.3013 0.885057 16.2082 0.792166Z" fill="#0052F1"/>
</symbol>




<symbol id="SearchIcon"  viewBox="0 0 20 21" fill="none" xmlns="http://www.w3.org/2000/svg">
<path d="M18.1259 17.7411L13.4059 13.0211C14.5401 11.6595 15.1057 9.91291 14.985 8.14483C14.8643 6.37675 14.0666 4.72326 12.7579 3.52834C11.4491 2.33341 9.73008 1.68906 7.95834 1.72932C6.1866 1.76958 4.49859 2.49134 3.24545 3.74448C1.99232 4.99761 1.27055 6.68562 1.23029 8.45736C1.19004 10.2291 1.83439 11.9482 3.02931 13.2569C4.22423 14.5657 5.87772 15.3634 7.64581 15.4841C9.41389 15.6047 11.1604 15.0391 12.5221 13.9049L17.2421 18.6249L18.1259 17.7411ZM2.50087 8.62489C2.50087 7.51237 2.83077 6.42483 3.44885 5.49981C4.06693 4.57478 4.94544 3.85381 5.97327 3.42807C7.00111 3.00232 8.13211 2.89093 9.22325 3.10797C10.3144 3.32501 11.3167 3.86074 12.1033 4.64741C12.89 5.43408 13.4257 6.43636 13.6428 7.52751C13.8598 8.61865 13.7484 9.74965 13.3227 10.7775C12.8969 11.8053 12.176 12.6838 11.2509 13.3019C10.3259 13.92 9.23839 14.2499 8.12587 14.2499C6.63453 14.2482 5.20475 13.6551 4.15022 12.6005C3.09568 11.546 2.50252 10.1162 2.50087 8.62489Z" fill="white"/>
</symbol>

<symbol id="SkillSearchIcon" viewBox="0 0 17 17" fill="none" xmlns="http://www.w3.org/2000/svg">
<path d="M16.8974 16.0136L12.1774 11.2936C13.3116 9.93192 13.8772 8.18537 13.7565 6.41729C13.6358 4.64921 12.8381 2.99572 11.5294 1.8008C10.2206 0.605876 8.50156 -0.0384784 6.72982 0.00177886C4.95808 0.0420361 3.27007 0.763805 2.01694 2.01694C0.763805 3.27007 0.0420361 4.95808 0.00177886 6.72982C-0.0384784 8.50156 0.605876 10.2206 1.8008 11.5294C2.99572 12.8381 4.64921 13.6358 6.41729 13.7565C8.18537 13.8772 9.93192 13.3116 11.2936 12.1774L16.0136 16.8974L16.8974 16.0136ZM1.27235 6.89735C1.27235 5.78483 1.60225 4.69729 2.22033 3.77227C2.83842 2.84724 3.71692 2.12627 4.74476 1.70053C5.77259 1.27478 6.90359 1.16339 7.99473 1.38043C9.08588 1.59747 10.0882 2.1332 10.8748 2.91987C11.6615 3.70654 12.1972 4.70882 12.4143 5.79997C12.6313 6.89111 12.5199 8.02211 12.0942 9.04994C11.6684 10.0778 10.9475 10.9563 10.0224 11.5744C9.09741 12.1925 8.00987 12.5224 6.89735 12.5224C5.40601 12.5207 3.97624 11.9275 2.9217 10.873C1.86717 9.81847 1.274 8.38869 1.27235 6.89735Z" fill="#0052F1" fill-opacity="0.39"/>
</symbol>

<symbol id="plus" width="15" height="14" viewBox="0 0 15 14" fill="none" xmlns="http://www.w3.org/2000/svg">
<mask id="path-1-inside-1_989_1110" fill="white">
<path d="M13.5 7.99805H8.5V12.998C8.5 13.2633 8.39464 13.5176 8.20711 13.7052C8.01957 13.8927 7.76522 13.998 7.5 13.998C7.23478 13.998 6.98043 13.8927 6.79289 13.7052C6.60536 13.5176 6.5 13.2633 6.5 12.998V7.99805H1.5C1.23478 7.99805 0.98043 7.89269 0.792893 7.70515C0.605357 7.51762 0.5 7.26326 0.5 6.99805C0.5 6.73283 0.605357 6.47848 0.792893 6.29094C0.98043 6.1034 1.23478 5.99805 1.5 5.99805H6.5V0.998047C6.5 0.73283 6.60536 0.478476 6.79289 0.29094C6.98043 0.103403 7.23478 -0.00195313 7.5 -0.00195312C7.76522 -0.00195313 8.01957 0.103403 8.20711 0.29094C8.39464 0.478476 8.5 0.73283 8.5 0.998047V5.99805H13.5C13.7652 5.99805 14.0196 6.1034 14.2071 6.29094C14.3946 6.47848 14.5 6.73283 14.5 6.99805C14.5 7.26326 14.3946 7.51762 14.2071 7.70515C14.0196 7.89269 13.7652 7.99805 13.5 7.99805Z"/>
</mask>
<path d="M13.5 7.99805H8.5V12.998C8.5 13.2633 8.39464 13.5176 8.20711 13.7052C8.01957 13.8927 7.76522 13.998 7.5 13.998C7.23478 13.998 6.98043 13.8927 6.79289 13.7052C6.60536 13.5176 6.5 13.2633 6.5 12.998V7.99805H1.5C1.23478 7.99805 0.98043 7.89269 0.792893 7.70515C0.605357 7.51762 0.5 7.26326 0.5 6.99805C0.5 6.73283 0.605357 6.47848 0.792893 6.29094C0.98043 6.1034 1.23478 5.99805 1.5 5.99805H6.5V0.998047C6.5 0.73283 6.60536 0.478476 6.79289 0.29094C6.98043 0.103403 7.23478 -0.00195313 7.5 -0.00195312C7.76522 -0.00195313 8.01957 0.103403 8.20711 0.29094C8.39464 0.478476 8.5 0.73283 8.5 0.998047V5.99805H13.5C13.7652 5.99805 14.0196 6.1034 14.2071 6.29094C14.3946 6.47848 14.5 6.73283 14.5 6.99805C14.5 7.26326 14.3946 7.51762 14.2071 7.70515C14.0196 7.89269 13.7652 7.99805 13.5 7.99805Z" fill="black"/>
<path d="M8.5 7.99805V5.99805H6.5V7.99805H8.5ZM6.5 7.99805H8.5V5.99805H6.5V7.99805ZM6.5 5.99805V7.99805H8.5V5.99805H6.5ZM7.5 -0.00195312V1.99805V-0.00195312ZM8.5 5.99805H6.5V7.99805H8.5V5.99805ZM13.5 5.99805H8.5V9.99805H13.5V5.99805ZM6.5 7.99805V12.998H10.5V7.99805H6.5ZM6.5 12.998C6.5 12.7328 6.60536 12.4785 6.79289 12.2909L9.62132 15.1194C10.1839 14.5568 10.5 13.7937 10.5 12.998H6.5ZM6.79289 12.2909C6.98043 12.1034 7.23479 11.998 7.5 11.998V15.998C8.29565 15.998 9.05871 15.682 9.62132 15.1194L6.79289 12.2909ZM7.5 11.998C7.76521 11.998 8.01957 12.1034 8.20711 12.2909L5.37868 15.1194C5.94129 15.682 6.70435 15.998 7.5 15.998V11.998ZM8.20711 12.2909C8.39464 12.4785 8.5 12.7328 8.5 12.998H4.5C4.5 13.7937 4.81607 14.5568 5.37868 15.1194L8.20711 12.2909ZM8.5 12.998V7.99805H4.5V12.998H8.5ZM6.5 5.99805H1.5V9.99805H6.5V5.99805ZM1.5 5.99805C1.76522 5.99805 2.01957 6.1034 2.20711 6.29094L-0.62132 9.11937C-0.058712 9.68198 0.704349 9.99805 1.5 9.99805V5.99805ZM2.20711 6.29094C2.39464 6.47848 2.5 6.73283 2.5 6.99805H-1.5C-1.5 7.7937 -1.18393 8.55676 -0.62132 9.11937L2.20711 6.29094ZM2.5 6.99805C2.5 7.26326 2.39464 7.51762 2.20711 7.70515L-0.62132 4.87673C-1.18393 5.43933 -1.5 6.2024 -1.5 6.99805H2.5ZM2.20711 7.70515C2.01957 7.89269 1.76522 7.99805 1.5 7.99805V3.99805C0.704349 3.99805 -0.058712 4.31412 -0.62132 4.87673L2.20711 7.70515ZM1.5 7.99805H6.5V3.99805H1.5V7.99805ZM8.5 5.99805V0.998047H4.5V5.99805H8.5ZM8.5 0.998047C8.5 1.26326 8.39464 1.51762 8.20711 1.70515L5.37868 -1.12327C4.81607 -0.560665 4.5 0.202397 4.5 0.998047H8.5ZM8.20711 1.70515C8.01957 1.89269 7.76522 1.99805 7.5 1.99805V-2.00195C6.70435 -2.00195 5.94129 -1.68588 5.37868 -1.12327L8.20711 1.70515ZM7.5 1.99805C7.23478 1.99805 6.98043 1.89269 6.79289 1.70515L9.62132 -1.12327C9.05871 -1.68588 8.29565 -2.00195 7.5 -2.00195V1.99805ZM6.79289 1.70515C6.60536 1.51762 6.5 1.26326 6.5 0.998047H10.5C10.5 0.202397 10.1839 -0.560665 9.62132 -1.12327L6.79289 1.70515ZM6.5 0.998047V5.99805H10.5V0.998047H6.5ZM8.5 7.99805H13.5V3.99805H8.5V7.99805ZM13.5 7.99805C13.2348 7.99805 12.9804 7.89269 12.7929 7.70515L15.6213 4.87673C15.0587 4.31412 14.2956 3.99805 13.5 3.99805V7.99805ZM12.7929 7.70515C12.6054 7.51761 12.5 7.26326 12.5 6.99805H16.5C16.5 6.2024 16.1839 5.43934 15.6213 4.87673L12.7929 7.70515ZM12.5 6.99805C12.5 6.73283 12.6054 6.47848 12.7929 6.29094L15.6213 9.11937C16.1839 8.55676 16.5 7.79369 16.5 6.99805H12.5ZM12.7929 6.29094C12.9804 6.1034 13.2348 5.99805 13.5 5.99805V9.99805C14.2956 9.99805 15.0587 9.68198 15.6213 9.11937L12.7929 6.29094Z" fill="#F7FAFF" mask="url(#path-1-inside-1_989_1110)"/>
</symbol>

<symbol id = "categoryiconactive"  viewBox="0 0 27 27" fill="none" xmlns="http://www.w3.org/2000/svg">
<path d="M7.82307 24.3242V21.2719C7.6564 19.6148 6.55704 18.3584 5.54102 16.8456M15.9812 24.3242V22.493C21.2269 22.493 20.6436 16.3883 20.6436 16.3883C20.6436 16.3883 22.9748 16.3883 22.9748 13.946L20.6436 10.2836C20.6436 5.39901 16.681 3.00157 12.4855 2.95777C10.135 2.9332 8.2579 3.52401 6.85512 4.55926" stroke="#0052F1" stroke-width="1.5" stroke-linecap="round" stroke-linejoin="round"/>
<path d="M14.4279 8.29884L16.5647 10.9698L14.4279 13.6407M5.88089 8.29884L3.74414 10.9698L5.88089 13.6407M11.2228 7.23047L9.08602 14.7091" stroke="#0052F1" stroke-width="1.5" stroke-linecap="round" stroke-linejoin="round"/>
</symbol>

<symbol id="categoryicon"  viewBox="0 0 27 27" fill="none" xmlns="http://www.w3.org/2000/svg">
<path d="M7.82307 24.3242V21.2719C7.6564 19.6148 6.55704 18.3584 5.54102 16.8456M15.9812 24.3242V22.493C21.2269 22.493 20.6436 16.3883 20.6436 16.3883C20.6436 16.3883 22.9748 16.3883 22.9748 13.946L20.6436 10.2836C20.6436 5.39901 16.681 3.00157 12.4855 2.95777C10.135 2.9332 8.2579 3.52401 6.85512 4.55926" stroke="#6154A9" stroke-width="1.5" stroke-linecap="round" stroke-linejoin="round"/>
<path d="M14.4279 8.29884L16.5647 10.9698L14.4279 13.6407M5.88089 8.29884L3.74414 10.9698L5.88089 13.6407M11.2228 7.23047L9.08602 14.7091" stroke="#6154A9" stroke-width="1.5" stroke-linecap="round" stroke-linejoin="round"/>
</symbol>


<symbol id="chatbot"  viewBox="0 0 26 20" fill="none" xmlns="http://www.w3.org/2000/svg">
<path d="M16.1556 1.03144H9.84163C9.0784 1.03129 8.32261 1.18148 7.61743 1.47345C6.91226 1.76542 6.2715 2.19345 5.73176 2.73308C5.19202 3.27271 4.76387 3.91338 4.47176 4.6185C4.17965 5.32362 4.0293 6.07937 4.0293 6.84261V13.1566C4.0293 14.6981 4.64167 16.1765 5.73169 17.2665C6.82171 18.3566 8.3001 18.9689 9.84163 18.9689H16.1556C17.6972 18.9689 19.1755 18.3566 20.2656 17.2665C21.3556 16.1765 21.968 14.6981 21.968 13.1566V6.84261C21.968 5.30108 21.3556 3.82269 20.2656 2.73267C19.1755 1.64264 17.6972 1.03027 16.1556 1.03027V1.03144Z" stroke="#F7FAFF" stroke-width="1.5"/>
<path d="M21.873 14.1853H23.7619C24.079 14.1853 24.3832 14.0593 24.6074 13.835C24.8317 13.6108 24.9577 13.3066 24.9577 12.9895V7.01029C24.9577 6.69313 24.8317 6.38897 24.6074 6.1647C24.3832 5.94044 24.079 5.81445 23.7619 5.81445H21.8718M4.12685 14.1853H2.23685C2.07981 14.1853 1.92431 14.1544 1.77922 14.0943C1.63414 14.0342 1.50231 13.9461 1.39127 13.835C1.28022 13.724 1.19214 13.5922 1.13204 13.4471C1.07195 13.302 1.04102 13.1465 1.04102 12.9895V7.01029C1.04102 6.69313 1.167 6.38897 1.39127 6.1647C1.61553 5.94044 1.91969 5.81445 2.23685 5.81445H4.12685" stroke="#F7FAFF" stroke-width="1.5"/>
<path d="M2.22461 5.81458V1.03125M23.7613 5.81458L23.7496 1.03125M9.39961 6.22292V9.37058M16.5746 6.22292V9.37058M10.5954 14.1854H15.3788" stroke="#F7FAFF" stroke-width="1.5" stroke-linecap="round" stroke-linejoin="round"/>
</symbol>




</svg>
